<?xml version='1.0' encoding='utf-8'?>
<svg xmlns:xlink="http://www.w3.org/1999/xlink" xmlns="http://www.w3.org/2000/svg" viewBox="0 0 35.433 425.2"> <defs> <linearGradient id="b"> <stop stop-color="#d3d7cf" stop-opacity=".76471" offset="0"/> <stop stop-color="#cdd2c9" stop-opacity=".76471" offset=".72222"/> <stop stop-color="#595e55" stop-opacity=".76471" offset="1"/> </linearGradient> <linearGradient id="c"> <stop stop-color="#d3d7cf" offset="0"/> <stop stop-color="#f5f6f4" offset="1"/> </linearGradient> <linearGradient id="h" x1="116.54" x2="240.6" gradientUnits="userSpaceOnUse" spreadMethod="reflect"> <stop stop-color="#f3c886" offset="0"/> <stop stop-color="#f3c886" offset=".51221"/> <stop stop-color="#f7d7a4" offset=".76832"/> <stop stop-color="#f7d7a4" offset="1"/> </linearGradient> <linearGradient id="g" x1="118.04" x2="224.97" gradientUnits="userSpaceOnUse" spreadMethod="reflect"> <stop stop-color="#f7e4c7" offset="0"/> <stop stop-color="#fcf2e4" offset="1"/> </linearGradient> <linearGradient id="f" x1="113.13" x2="240.19" gradientUnits="userSpaceOnUse" spreadMethod="reflect"> <stop stop-color="#e18563" offset="0"/> <stop stop-color="#e89f84" offset="1"/> </linearGradient> <linearGradient id="e" x1="134.8" x2="177.16" gradientUnits="userSpaceOnUse" spreadMethod="reflect"> <stop stop-color="#2e3436" offset="0"/> <stop stop-color="#637074" offset="1"/> </linearGradient> <linearGradient id="j" x1="63.301" x2="195" gradientUnits="userSpaceOnUse" spreadMethod="reflect" xlink:href="#c"/> <linearGradient id="i" x1="113.45" x2="240.19" gradientUnits="userSpaceOnUse" spreadMethod="reflect" xlink:href="#c"/> <radialGradient id="a" cx="88.481" cy="-3011.5" r="26.754" gradientTransform="matrix(1.0827 .022397 -.036822 1.1426 -118.22 427.43)" gradientUnits="userSpaceOnUse" xlink:href="#b"/> <radialGradient id="d" cx="90.914" cy="-3011.5" r="26.754" gradientTransform="matrix(-.75002 .7702 -.79781 -.77692 -2243.5 -5421.2)" gradientUnits="userSpaceOnUse" xlink:href="#b"/> </defs> <g transform="matrix(.093971 0 0 .093971 -4.8545 310.37)" stroke="#000" stroke-linecap="round" stroke-linejoin="round" stroke-width="3"> <path d="m163.12-3218.5h154.15a48.487 48.487 0 0 1 48.487 48.487v218.8a48.487 48.487 0 0 1-48.487 48.487h-154.15a48.487 48.487 0 0 1-48.487-48.487v-218.8a48.487 48.487 0 0 1 48.487-48.487" fill="url(#f)"/> <path d="m118.04 669.38c63.193-258.45 196.49-247.35 244.31 0l-122.16 468.18-122.16-468.18z" fill="url(#g)"/> <path d="m118.04-2823.7v3493.1c11.731-10.285 25.707-16.25 40.719-16.25s28.988 5.9647 40.719 16.25c11.731-10.285 25.707-16.25 40.719-16.25s28.988 5.9647 40.719 16.25c11.731-10.285 25.707-16.25 40.719-16.25s28.988 5.9647 40.719 16.25v-3493.1h-244.31z" fill="url(#h)"/> <path d="m199.47-2823.7v3493.1c11.731-10.285 25.707-16.25 40.719-16.25s28.988 5.9647 40.719 16.25v-3493.1h-81.438z" fill="none"/> <path d="m114.63-3038.7h251.12v315.77h-251.12z" fill="url(#i)"/> <g transform="translate(45.192 123.63)" fill="url(#j)"> <path d="m68.568-2925.3h252.86a4.0406 4.0406 0 0 1 4.0406 4.0406v14.469a4.0406 4.0406 0 0 1-4.0406 4.0406h-252.86a4.0406 4.0406 0 0 1-4.0406-4.0406v-14.469a4.0406 4.0406 0 0 1 4.0406-4.0406"/> <path d="m68.568-2959.1h252.86a4.0406 4.0406 0 0 1 4.0406 4.0406v14.469a4.0406 4.0406 0 0 1-4.0406 4.0406h-252.86a4.0406 4.0406 0 0 1-4.0406-4.0406v-14.469a4.0406 4.0406 0 0 1 4.0406-4.0406"/> <path d="m68.568-2891.4h252.86a4.0406 4.0406 0 0 1 4.0406 4.0406v14.469a4.0406 4.0406 0 0 1-4.0406 4.0406h-252.86a4.0406 4.0406 0 0 1-4.0406-4.0406v-14.469a4.0406 4.0406 0 0 1 4.0406-4.0406"/> <path d="m68.568-3106.1h252.86a4.0406 4.0406 0 0 1 4.0406 4.0406v14.469a4.0406 4.0406 0 0 1-4.0406 4.0406h-252.86a4.0406 4.0406 0 0 1-4.0406-4.0406v-14.469a4.0406 4.0406 0 0 1 4.0406-4.0406"/> <path d="m68.568-3139.9h252.86a4.0406 4.0406 0 0 1 4.0406 4.0406v14.469a4.0406 4.0406 0 0 1-4.0406 4.0406h-252.86a4.0406 4.0406 0 0 1-4.0406-4.0406v-14.469a4.0406 4.0406 0 0 1 4.0406-4.0406"/> <path d="m68.568-3072.3h252.86a4.0406 4.0406 0 0 1 4.0406 4.0406v14.469a4.0406 4.0406 0 0 1-4.0406 4.0406h-252.86a4.0406 4.0406 0 0 1-4.0406-4.0406v-14.469a4.0406 4.0406 0 0 1 4.0406-4.0406"/> </g> <path transform="matrix(.80592 0 0 1.0059 70.852 148.52)" d="m116.17-3011.5a25.254 25.254 0 1 1-50.508 0 25.254 25.254 0 1 1 50.508 0z" fill="url(#a)"/> <path transform="translate(149.28 130.7)" d="m116.17-3011.5a25.254 25.254 0 1 1-50.508 0 25.254 25.254 0 1 1 50.508 0z" fill="url(#d)"/> <path transform="matrix(-.80592 0 0 1.0059 409.53 148.52)" d="m116.17-3011.5a25.254 25.254 0 1 1-50.508 0 25.254 25.254 0 1 1 50.508 0z" fill="url(#a)"/> <path transform="translate(63.027 -3343.6)" d="m151.81 4384.1 25.344 97.094 25.344-97.094h-50.688z" fill="url(#e)"/> </g> </svg>